<?xml version="1.0" encoding="utf-8" standalone="no"?>
<!DOCTYPE svg PUBLIC "-//W3C//DTD SVG 1.1//EN"
  "http://www.w3.org/Graphics/SVG/1.1/DTD/svg11.dtd">
<!-- Created with matplotlib (http://matplotlib.org/) -->
<svg height="432pt" version="1.1" viewBox="0 0 576 432" width="576pt" xmlns="http://www.w3.org/2000/svg" xmlns:xlink="http://www.w3.org/1999/xlink">
 <defs>
  <style type="text/css">
*{stroke-linecap:butt;stroke-linejoin:round;stroke-miterlimit:100000;}
  </style>
 </defs>
 <g id="figure_1">
  <g id="patch_1">
   <path d="M 0 432 
L 576 432 
L 576 0 
L 0 0 
z
" style="fill:#ffffff;"/>
  </g>
  <g id="axes_1">
   <g id="patch_2">
    <path d="M 72 388.8 
L 518.4 388.8 
L 518.4 43.2 
L 72 43.2 
z
" style="fill:#ffffff;"/>
   </g>
   <g id="line2d_1">
    <path clip-path="url(#pead5f20104)" d="M 72 43.645426 
L 72.248 43.2 
L 72.992 43.296979 
L 73.24 43.279837 
L 73.736 43.550966 
L 74.48 43.631373 
L 75.72 43.435753 
L 75.968 43.493692 
L 76.712 43.398972 
L 77.456 43.726401 
L 77.704 43.601227 
L 78.2 43.782391 
L 78.448 43.607455 
L 78.944 43.682228 
L 79.44 43.453441 
L 80.432 43.635558 
L 80.928 43.839712 
L 81.176 44.107085 
L 81.672 44.957135 
L 82.168 45.49937 
L 82.416 45.855233 
L 82.912 46.106583 
L 83.656 46.698198 
L 83.904 47.138224 
L 84.152 47.806705 
L 84.4 48.834329 
L 84.648 48.890034 
L 85.144 49.496556 
L 85.392 50.239309 
L 85.64 50.066489 
L 85.888 50.172406 
L 86.384 50.725863 
L 86.88 51.545767 
L 87.128 52.4422 
L 87.624 52.85044 
L 87.872 53.165221 
L 88.368 53.996821 
L 89.112 54.81651 
L 89.608 55.767863 
L 89.856 56.046197 
L 90.6 57.816242 
L 91.096 58.355124 
L 91.84 59.699716 
L 92.088 59.698385 
L 92.584 60.144117 
L 93.576 62.036817 
L 93.824 62.333124 
L 94.072 63.444152 
L 94.32 63.782397 
L 94.568 63.930706 
L 95.064 64.724503 
L 95.312 65.201453 
L 95.808 65.503228 
L 96.304 66.13003 
L 96.552 66.989256 
L 97.296 67.737335 
L 97.792 69.827651 
L 98.288 70.128072 
L 98.536 70.212307 
L 99.032 71.141241 
L 99.28 72.003249 
L 99.528 72.340711 
L 100.024 72.559488 
L 100.768 73.409894 
L 101.016 73.677505 
L 101.264 74.285049 
L 101.512 75.31101 
L 103 77.656883 
L 104.24 79.392526 
L 104.736 80.008155 
L 105.232 81.965379 
L 105.48 82.084015 
L 106.472 83.399127 
L 106.968 84.396462 
L 107.216 84.302146 
L 107.96 85.24732 
L 108.456 86.562526 
L 108.952 87.229912 
L 109.2 88.224965 
L 109.944 89.451229 
L 110.44 89.87642 
L 110.936 90.967785 
L 111.184 91.16388 
L 111.432 91.783528 
L 111.928 92.064927 
L 112.424 93.217941 
L 112.92 94.011239 
L 113.416 94.862311 
L 113.664 96.044116 
L 113.912 96.532738 
L 114.16 96.555325 
L 114.656 97.040667 
L 115.152 97.9997 
L 115.896 98.578525 
L 116.144 99.47667 
L 116.392 99.936335 
L 116.64 100.081363 
L 117.136 100.926515 
L 117.384 101.259958 
L 117.632 102.066048 
L 117.88 103.414396 
L 118.128 103.258123 
L 118.376 103.444091 
L 118.624 103.816073 
L 119.12 105.079142 
L 120.112 105.760436 
L 120.36 106.051917 
L 121.352 108.502211 
L 121.6 108.523394 
L 122.592 110.095274 
L 123.088 111.176297 
L 123.336 111.664349 
L 123.832 113.354605 
L 124.328 113.845961 
L 125.072 114.791942 
L 125.568 116.144024 
L 126.56 117.072103 
L 126.808 117.627391 
L 127.304 118.164823 
L 127.8 119.355496 
L 128.296 120.064869 
L 128.792 121.25062 
L 129.536 122.398807 
L 129.784 123.420583 
L 130.28 123.962319 
L 131.024 124.976177 
L 132.016 127.564056 
L 132.76 127.650478 
L 133.256 128.276686 
L 133.752 130.031586 
L 134 130.120434 
L 134.496 130.845308 
L 135.736 133.27273 
L 136.48 134.50508 
L 136.976 135.877821 
L 137.472 136.323792 
L 137.968 137.320985 
L 138.464 137.85818 
L 139.208 138.934685 
L 139.456 139.660605 
L 140.2 140.60535 
L 140.696 141.595767 
L 141.192 142.357207 
L 141.688 143.05405 
L 142.184 145.00507 
L 142.68 145.479713 
L 142.928 145.590005 
L 143.176 145.976586 
L 143.424 146.64925 
L 144.168 147.55731 
L 145.16 149.520122 
L 145.656 149.894387 
L 146.648 151.956293 
L 146.896 152.544557 
L 147.144 152.677482 
L 147.392 153.048776 
L 147.888 154.616733 
L 148.384 155.965818 
L 148.632 155.898773 
L 148.88 156.084455 
L 149.376 157.256251 
L 149.624 157.810254 
L 149.872 157.956875 
L 151.608 160.180568 
L 152.6 162.252484 
L 152.848 162.420121 
L 153.344 163.217152 
L 155.08 167.129605 
L 155.824 168.069927 
L 157.56 171.292501 
L 157.808 171.356837 
L 158.056 171.553337 
L 158.304 172.1644 
L 158.552 172.382654 
L 159.296 173.82986 
L 160.04 175.160448 
L 160.288 175.856221 
L 160.536 176.124284 
L 161.032 177.33053 
L 161.528 177.803057 
L 162.024 178.646021 
L 162.52 180.151807 
L 162.768 180.538697 
L 163.264 180.742424 
L 164.008 181.337297 
L 164.504 183.438122 
L 165 183.707017 
L 165.496 184.320173 
L 165.744 184.910766 
L 165.992 185.188933 
L 166.736 186.827169 
L 167.232 187.661979 
L 167.728 188.835129 
L 168.968 191.13866 
L 169.464 191.614017 
L 169.712 192.046102 
L 170.208 193.100259 
L 171.2 194.703214 
L 171.448 195.364157 
L 171.944 195.965092 
L 172.688 197.170768 
L 172.936 197.799043 
L 173.184 198.023456 
L 173.432 198.415291 
L 174.176 199.971836 
L 174.672 200.644525 
L 175.168 201.011681 
L 175.664 202.141348 
L 176.408 203.260719 
L 177.152 204.860702 
L 177.648 205.587193 
L 178.392 206.544277 
L 178.64 207.280278 
L 178.888 207.628342 
L 179.384 208.820395 
L 179.88 209.557156 
L 180.128 210.110946 
L 180.624 210.611242 
L 180.872 211.029848 
L 181.12 212.048961 
L 181.616 212.873 
L 181.864 212.928729 
L 182.36 213.522674 
L 182.856 214.855379 
L 183.104 215.017334 
L 183.6 215.865457 
L 184.344 217.246282 
L 184.84 218.733476 
L 185.088 219.044905 
L 186.328 221.343205 
L 186.576 221.626911 
L 186.824 222.245131 
L 187.072 223.182577 
L 187.816 223.927351 
L 188.064 224.598375 
L 188.312 224.735984 
L 189.056 225.845013 
L 189.304 226.253824 
L 189.8 227.44754 
L 190.048 227.690971 
L 190.792 229.22253 
L 191.04 229.425235 
L 192.032 231.105197 
L 192.28 232.184484 
L 192.776 232.741412 
L 194.016 234.887623 
L 194.264 235.143655 
L 195.008 236.911727 
L 195.504 237.200854 
L 195.752 237.694755 
L 196 238.503626 
L 197.488 240.46746 
L 197.984 241.46023 
L 198.232 241.647387 
L 200.464 245.871695 
L 200.96 246.322444 
L 201.456 247.902336 
L 201.704 248.015077 
L 202.2 248.676687 
L 203.688 251.940892 
L 203.936 252.196353 
L 204.68 253.746146 
L 204.928 254.324734 
L 205.672 254.986747 
L 207.408 258.851887 
L 207.656 259.544617 
L 208.152 259.833554 
L 208.4 260.268921 
L 208.896 261.334609 
L 209.64 262.256744 
L 210.136 264.22084 
L 210.384 264.495893 
L 210.632 264.988937 
L 210.88 265.038152 
L 211.376 265.684758 
L 212.12 267.319857 
L 212.616 267.742408 
L 212.864 268.230151 
L 213.36 270.159322 
L 214.848 272.82328 
L 215.096 273.563917 
L 216.832 276.277874 
L 217.328 277.959571 
L 217.576 278.229061 
L 217.824 278.827761 
L 218.072 279.022835 
L 218.32 279.479694 
L 218.568 280.326724 
L 219.064 281.021189 
L 220.056 283.057324 
L 220.304 283.946102 
L 220.8 284.465775 
L 221.296 284.729558 
L 222.536 287.676675 
L 223.28 288.582406 
L 223.776 289.89747 
L 224.768 291.613379 
L 225.016 291.869863 
L 225.512 293.690714 
L 226.008 294.171824 
L 226.256 294.370583 
L 226.504 294.846462 
L 226.752 295.742587 
L 227 296.154179 
L 227.992 298.789371 
L 229.728 301.777595 
L 230.472 304.308414 
L 230.968 304.654293 
L 231.216 305.084952 
L 231.712 306.557334 
L 232.208 307.37127 
L 232.456 308.509423 
L 232.952 308.979358 
L 233.448 310.214586 
L 233.696 310.488758 
L 234.192 311.254026 
L 234.44 311.578388 
L 235.184 313.892379 
L 235.68 314.614186 
L 236.176 315.314382 
L 237.416 318.842799 
L 237.912 319.154131 
L 238.904 321.651309 
L 239.152 323.070149 
L 239.896 323.949275 
L 240.392 325.237902 
L 240.64 325.484186 
L 241.136 326.609668 
L 241.384 327.389272 
L 241.88 328.256535 
L 242.128 329.434702 
L 242.872 330.973987 
L 243.864 332.558373 
L 244.36 333.855843 
L 244.608 334.116369 
L 245.352 336.184647 
L 245.848 336.660953 
L 246.344 338.418088 
L 246.592 338.599396 
L 246.84 339.007469 
L 247.088 340.146979 
L 247.336 340.655739 
L 247.584 340.712632 
L 247.832 341.120776 
L 248.328 343.384364 
L 248.576 343.893505 
L 248.824 344.105387 
L 250.064 346.956313 
L 250.56 348.690385 
L 251.056 349.472558 
L 251.552 350.839094 
L 252.296 351.501891 
L 252.544 352.139036 
L 252.792 353.246996 
L 253.784 355.720208 
L 254.28 356.89538 
L 254.776 358.262035 
L 255.024 358.387686 
L 256.016 360.18966 
L 256.512 362.440886 
L 257.256 364.154465 
L 258.744 367.379345 
L 258.992 367.504949 
L 259.24 367.755869 
L 260.48 370.028065 
L 260.728 371.161179 
L 260.976 371.066341 
L 261.472 371.780444 
L 261.72 371.994419 
L 262.216 372.979795 
L 262.464 373.256083 
L 263.456 375.145812 
L 263.952 375.891441 
L 264.2 375.829745 
L 264.448 375.939443 
L 265.192 376.947881 
L 265.688 377.349107 
L 266.184 378.25517 
L 266.928 378.657537 
L 267.176 378.89405 
L 267.672 379.032659 
L 268.168 379.561104 
L 268.416 379.56146 
L 268.912 379.913852 
L 269.16 380.248175 
L 509.968 380.248175 
L 509.968 380.248175 
" style="fill:none;stroke:#bfbf00;stroke-linecap:square;"/>
   </g>
   <g id="line2d_2">
    <path clip-path="url(#pead5f20104)" d="M 72 44.783185 
L 72.248 43.284891 
L 73.24 43.280315 
L 73.488 43.693681 
L 73.736 44.603179 
L 74.232 44.272156 
L 74.728 44.209575 
L 74.976 44.309084 
L 75.472 44.165384 
L 75.968 43.566442 
L 76.216 43.686182 
L 76.712 43.561017 
L 77.208 43.648312 
L 77.704 44.204906 
L 78.944 44.212687 
L 79.192 44.082005 
L 79.44 43.612752 
L 79.688 43.429109 
L 80.184 43.561866 
L 80.432 43.440096 
L 80.928 43.723675 
L 81.424 45.574317 
L 81.672 45.468157 
L 82.664 46.136569 
L 82.912 46.009613 
L 83.16 46.237069 
L 83.656 46.962311 
L 84.152 47.527486 
L 84.4 49.040315 
L 84.648 49.725468 
L 84.896 49.756076 
L 85.392 50.161142 
L 85.888 51.296258 
L 86.384 50.837664 
L 87.128 52.258907 
L 87.376 52.303049 
L 87.624 52.614688 
L 87.872 54.031873 
L 88.12 54.356436 
L 88.368 54.486646 
L 88.616 54.766594 
L 89.112 56.051634 
L 89.36 55.972451 
L 89.608 55.685242 
L 89.856 55.919678 
L 90.352 57.288005 
L 90.6 57.448116 
L 90.848 57.795881 
L 91.096 59.610822 
L 91.344 59.900768 
L 91.84 60.062907 
L 92.336 60.691939 
L 92.832 60.666708 
L 93.08 60.759804 
L 93.328 61.238251 
L 93.576 62.259521 
L 93.824 62.491317 
L 94.072 62.570689 
L 94.32 62.827668 
L 94.568 63.365775 
L 94.816 64.96005 
L 95.312 65.400864 
L 95.56 65.476981 
L 95.808 65.750609 
L 96.056 66.744854 
L 97.048 67.157844 
L 97.296 67.461277 
L 97.544 68.248723 
L 98.04 68.72783 
L 98.288 68.947648 
L 98.536 69.52617 
L 98.784 71.236555 
L 99.032 71.83564 
L 99.28 71.821303 
L 100.024 72.453306 
L 100.52 73.968634 
L 100.768 74.077577 
L 101.264 73.957033 
L 101.76 74.491225 
L 102.008 75.483586 
L 102.256 75.901007 
L 102.752 76.258628 
L 103 76.557015 
L 103.496 79.462883 
L 104.24 79.64068 
L 104.488 79.753723 
L 104.984 80.425013 
L 105.232 80.942698 
L 105.48 80.887472 
L 105.728 80.955572 
L 105.976 81.193453 
L 106.472 82.777871 
L 106.72 82.73467 
L 106.968 83.032869 
L 107.216 83.8895 
L 107.464 85.820127 
L 107.712 85.659874 
L 107.96 85.75198 
L 108.456 86.336352 
L 108.704 87.13719 
L 109.2 86.935294 
L 109.448 87.342764 
L 109.696 88.445764 
L 109.944 88.591681 
L 110.192 88.585408 
L 110.44 88.804093 
L 110.936 91.059659 
L 111.68 91.538248 
L 112.176 92.396859 
L 112.672 92.780278 
L 112.92 92.818336 
L 113.168 93.072204 
L 113.416 93.568478 
L 113.664 94.349982 
L 114.16 94.867054 
L 114.656 96.234155 
L 115.4 97.732882 
L 115.648 97.887475 
L 115.896 98.205671 
L 116.144 99.567488 
L 116.392 99.722743 
L 116.64 100.027827 
L 117.632 100.350973 
L 117.88 100.713735 
L 118.128 101.530326 
L 118.376 101.781034 
L 118.872 103.067019 
L 119.12 103.710953 
L 119.368 103.987835 
L 119.864 105.817632 
L 120.608 106.247032 
L 120.856 106.958643 
L 121.352 107.487317 
L 121.848 107.541977 
L 122.344 108.155258 
L 122.592 109.130828 
L 122.84 109.552447 
L 123.584 110.120169 
L 123.832 111.197845 
L 124.08 112.825649 
L 124.328 113.242411 
L 124.824 113.484441 
L 125.816 115.680348 
L 126.064 115.503636 
L 126.56 115.870266 
L 127.056 115.915163 
L 127.304 116.135357 
L 127.552 116.550514 
L 127.8 117.812918 
L 128.048 118.341544 
L 128.296 118.422049 
L 128.544 118.816738 
L 128.792 119.769718 
L 129.288 120.443318 
L 129.784 122.469352 
L 130.28 122.532076 
L 130.776 123.235953 
L 131.272 124.60725 
L 131.52 124.629086 
L 131.768 124.854374 
L 132.264 124.907241 
L 132.76 125.509864 
L 133.008 126.393375 
L 133.504 127.112344 
L 134 128.78632 
L 134.248 128.844848 
L 134.496 129.657242 
L 134.744 130.879559 
L 135.24 130.892339 
L 135.736 131.390312 
L 135.984 132.299999 
L 136.232 132.739114 
L 136.728 132.97025 
L 136.976 133.030899 
L 137.224 133.214542 
L 137.72 134.864892 
L 138.216 135.109044 
L 138.464 135.375598 
L 138.712 136.496802 
L 138.96 138.174174 
L 139.704 138.332069 
L 139.952 138.531183 
L 140.696 140.072166 
L 141.688 140.626353 
L 141.936 141.726571 
L 142.184 142.254253 
L 143.176 143.392059 
L 143.672 145.986712 
L 144.168 146.317215 
L 144.416 146.466526 
L 144.664 147.005481 
L 144.912 147.813961 
L 145.16 147.717282 
L 145.904 149.387815 
L 146.648 149.285948 
L 146.896 149.500813 
L 147.144 149.932807 
L 147.392 151.148474 
L 147.64 151.46068 
L 147.888 151.52095 
L 148.136 151.751992 
L 148.88 153.679081 
L 149.128 154.302643 
L 149.376 155.506144 
L 150.368 156.370696 
L 150.616 157.269585 
L 150.864 157.750154 
L 151.608 158.301512 
L 151.856 158.314057 
L 152.104 158.492749 
L 152.6 160.113246 
L 153.096 160.591836 
L 153.592 161.196769 
L 154.088 161.884988 
L 154.336 163.315661 
L 155.08 165.324999 
L 155.576 165.779348 
L 155.824 165.846363 
L 156.072 166.089196 
L 156.568 167.712191 
L 157.064 168.093015 
L 157.312 168.36339 
L 157.808 169.961578 
L 158.056 169.759965 
L 159.048 170.23167 
L 159.296 170.664653 
L 159.544 171.785291 
L 159.792 171.938565 
L 160.04 172.344761 
L 160.288 173.391169 
L 160.536 173.756901 
L 160.784 173.892724 
L 161.032 174.184509 
L 161.528 175.003176 
L 162.024 175.777086 
L 162.52 178.252374 
L 162.768 179.024776 
L 163.76 179.834859 
L 164.008 180.373247 
L 164.504 180.647489 
L 165 182.362496 
L 165.248 182.438803 
L 165.496 182.695311 
L 165.744 183.201819 
L 166.24 184.951914 
L 166.488 185.278079 
L 166.984 185.470636 
L 167.728 186.515392 
L 168.72 186.920882 
L 168.968 187.625184 
L 169.216 188.807036 
L 169.464 189.24252 
L 169.712 189.421968 
L 170.208 190.022608 
L 170.456 190.822788 
L 170.952 191.643718 
L 171.448 192.696161 
L 171.944 193.018883 
L 172.192 193.404376 
L 172.44 194.822318 
L 172.936 194.889285 
L 173.184 195.128345 
L 173.432 195.72276 
L 173.68 197.806283 
L 174.672 199.324394 
L 174.92 199.385324 
L 175.416 199.918621 
L 175.912 200.963236 
L 176.16 201.421781 
L 176.656 202.746248 
L 178.144 203.515301 
L 178.392 203.947295 
L 178.64 205.082412 
L 179.136 205.945126 
L 179.632 207.108822 
L 179.88 207.355237 
L 181.12 209.378677 
L 181.368 209.717529 
L 181.616 210.66004 
L 181.864 212.331564 
L 182.608 213.082555 
L 183.6 213.950033 
L 183.848 214.644571 
L 184.096 216.180414 
L 184.84 216.734225 
L 185.088 217.214322 
L 185.336 218.238563 
L 186.08 218.769642 
L 186.824 220.315814 
L 187.072 220.513889 
L 187.32 220.917116 
L 187.568 222.158863 
L 187.816 222.555769 
L 188.312 222.845809 
L 188.808 224.276058 
L 189.056 224.31539 
L 189.304 224.692064 
L 189.8 226.17004 
L 190.296 226.505496 
L 190.544 226.84081 
L 190.792 227.810439 
L 191.288 228.674003 
L 191.536 228.816711 
L 191.784 229.134435 
L 192.032 229.645612 
L 192.528 231.490642 
L 192.776 231.576663 
L 193.272 231.965976 
L 193.52 232.595858 
L 193.768 233.784974 
L 194.016 233.63769 
L 194.512 234.301526 
L 194.76 235.294263 
L 195.752 236.209704 
L 196.248 238.057329 
L 196.496 237.92872 
L 197.488 239.391699 
L 197.736 240.304688 
L 197.984 240.763798 
L 198.728 241.106706 
L 198.976 241.88821 
L 199.224 242.250358 
L 199.72 242.478806 
L 199.968 242.919808 
L 200.464 244.721261 
L 200.712 245.12543 
L 201.208 246.195888 
L 201.456 246.283419 
L 201.704 246.567893 
L 202.2 248.611565 
L 202.448 248.822657 
L 202.696 248.749039 
L 203.192 249.223431 
L 203.44 249.891323 
L 203.688 250.954048 
L 203.936 251.366235 
L 204.184 251.437448 
L 204.432 251.649719 
L 204.68 252.144908 
L 205.176 253.814736 
L 205.672 254.843504 
L 206.416 256.015877 
L 206.664 257.507765 
L 207.408 258.837468 
L 207.656 259.088269 
L 207.904 259.557851 
L 208.152 260.729517 
L 208.648 261.386893 
L 209.144 262.587609 
L 209.392 262.955559 
L 209.888 264.494279 
L 210.88 265.318888 
L 211.376 266.979189 
L 211.872 267.580961 
L 212.12 268.640903 
L 212.616 269.225368 
L 213.112 270.737725 
L 213.36 270.804505 
L 214.104 271.389065 
L 214.6 272.722728 
L 214.848 273.00857 
L 215.344 274.488151 
L 215.84 274.944714 
L 216.088 275.227492 
L 216.584 277.462637 
L 216.832 277.285312 
L 217.328 277.635057 
L 217.824 279.279039 
L 218.32 280.318608 
L 218.816 280.826531 
L 219.808 283.743198 
L 220.304 284.428163 
L 221.048 285.214335 
L 221.296 285.633832 
L 222.04 288.199811 
L 222.536 288.860535 
L 222.784 289.041209 
L 223.032 289.728768 
L 223.28 291.121901 
L 223.528 291.653075 
L 223.776 291.651565 
L 224.024 291.905009 
L 224.272 292.355537 
L 224.768 294.185711 
L 225.264 294.406566 
L 225.512 294.752018 
L 226.008 296.414489 
L 226.752 297.230938 
L 227 297.857329 
L 227.248 299.090589 
L 227.744 299.785928 
L 228.24 301.358982 
L 228.736 301.908124 
L 229.48 302.903925 
L 229.728 304.347145 
L 230.472 305.891288 
L 230.72 306.589316 
L 231.216 307.355068 
L 231.712 308.894495 
L 232.208 309.480941 
L 232.704 310.810171 
L 232.952 310.946608 
L 233.2 311.322811 
L 233.448 311.970189 
L 233.696 313.485422 
L 234.192 313.970284 
L 234.44 314.165247 
L 234.688 314.550693 
L 234.936 315.517209 
L 235.432 316.414304 
L 235.928 317.045316 
L 236.424 318.702646 
L 236.672 319.176331 
L 237.168 320.703401 
L 237.416 321.030085 
L 238.408 322.957741 
L 238.656 324.217455 
L 239.152 324.772116 
L 239.648 326.327577 
L 240.144 326.873228 
L 240.392 327.97604 
L 240.888 328.617144 
L 241.136 329.28999 
L 241.384 330.344367 
L 241.88 331.159968 
L 242.128 331.904214 
L 242.624 332.486652 
L 243.12 334.168316 
L 243.368 334.731275 
L 243.616 334.917891 
L 243.864 335.256743 
L 244.112 336.003865 
L 244.36 337.437275 
L 244.608 337.704394 
L 244.856 337.794331 
L 245.104 338.128419 
L 245.352 339.295463 
L 246.096 340.902517 
L 246.592 342.949303 
L 247.088 343.230287 
L 247.336 343.675722 
L 247.832 346.004292 
L 248.08 346.284805 
L 248.328 346.736701 
L 248.824 348.548105 
L 249.072 348.652802 
L 250.312 350.171054 
L 250.808 352.203265 
L 251.056 352.152095 
L 251.304 352.618518 
L 252.048 355.172894 
L 252.792 356.244957 
L 253.04 357.472225 
L 253.536 358.639553 
L 253.784 359.608708 
L 254.528 360.52929 
L 255.024 362.543393 
L 255.272 362.743638 
L 255.52 363.263115 
L 256.016 365.448457 
L 256.264 365.802777 
L 256.512 366.372764 
L 257.008 368.235762 
L 257.504 369.577349 
L 257.752 370.979491 
L 258.496 371.827491 
L 258.744 372.290705 
L 258.992 374.120078 
L 259.24 374.642338 
L 259.736 375.025378 
L 260.728 377.471285 
L 260.976 377.767834 
L 261.224 378.767833 
L 261.72 379.707138 
L 261.968 380.285991 
L 262.464 380.897857 
L 262.712 381.389321 
L 263.208 382.958317 
L 263.456 382.820041 
L 263.952 383.899366 
L 264.448 384.051743 
L 264.696 383.95945 
L 267.424 384.726569 
L 267.92 385.211195 
L 268.168 385.741566 
L 268.416 385.654224 
L 268.664 385.696009 
L 269.16 385.98086 
L 269.408 385.91809 
L 270.4 386.282077 
L 270.648 386.14517 
L 270.896 385.872674 
L 509.968 385.872674 
L 509.968 385.872674 
" style="fill:none;stroke:#bfbf00;stroke-dasharray:6.000000,6.000000;stroke-dashoffset:0.0;"/>
   </g>
   <g id="line2d_3">
    <path clip-path="url(#pead5f20104)" d="M 72 43.2 
L 75.72 43.82208 
L 77.456 44.4096 
L 79.44 45.34272 
L 81.672 46.69056 
L 83.656 48.17664 
L 86.136 50.38848 
L 89.112 53.42976 
L 92.336 57.16224 
L 96.552 62.62272 
L 102.008 70.39872 
L 108.952 81.216 
L 122.096 103.40352 
L 126.56 111.2832 
L 128.544 114.80832 
L 150.864 155.45088 
L 153.344 160.04736 
L 158.552 169.6896 
L 161.28 174.76992 
L 166.24 183.96288 
L 169.216 189.52704 
L 173.68 197.82144 
L 176.656 203.3856 
L 180.872 211.23072 
L 184.096 217.27872 
L 188.064 224.67456 
L 191.536 231.2064 
L 194.76 237.2544 
L 198.728 244.75392 
L 201.208 249.45408 
L 207.408 261.30816 
L 209.392 265.10976 
L 220.552 287.12448 
L 235.68 318.9888 
L 247.832 345.84192 
L 253.536 357.519744 
L 256.264 362.503296 
L 258.744 366.56064 
L 260.976 369.778176 
L 263.208 372.560256 
L 265.192 374.675328 
L 267.176 376.472448 
L 269.16 377.979264 
L 271.144 379.237248 
L 273.376 380.40192 
L 275.856 381.43872 
L 278.832 382.399488 
L 282.552 383.273856 
L 286.272 383.889024 
L 290.488 384.369408 
L 297.432 384.839424 
L 307.352 385.147008 
L 327.44 385.316352 
L 509.968 385.344 
L 509.968 385.344 
" style="fill:none;stroke:#ff0000;stroke-linecap:square;"/>
   </g>
   <g id="line2d_4">
    <path clip-path="url(#pead5f20104)" d="M 72 43.2 
L 75.72 43.82208 
L 77.456 44.4096 
L 79.44 45.34272 
L 81.672 46.69056 
L 83.656 48.17664 
L 86.136 50.38848 
L 89.112 53.42976 
L 92.336 57.16224 
L 96.552 62.62272 
L 102.008 70.39872 
L 108.952 81.216 
L 122.096 103.40352 
L 126.56 111.2832 
L 128.544 114.80832 
L 150.864 155.45088 
L 153.344 160.04736 
L 158.8 170.13888 
L 161.528 175.2192 
L 166.24 183.96288 
L 168.968 189.0432 
L 173.184 196.88832 
L 176.16 202.45248 
L 180.624 210.74688 
L 183.6 216.31104 
L 187.568 223.70688 
L 190.792 229.75488 
L 194.512 236.70144 
L 197.984 243.23328 
L 200.96 248.832 
L 205.176 256.81536 
L 207.904 261.9648 
L 216.088 277.6896 
L 217.824 281.04192 
L 229.728 304.50816 
L 232.704 310.48704 
L 237.416 319.92192 
L 240.144 325.3824 
L 248.328 341.1072 
L 252.544 348.5376 
L 255.768 353.7216 
L 258.744 358.089984 
L 261.472 361.677312 
L 263.952 364.601088 
L 266.68 367.445376 
L 269.16 369.719424 
L 271.888 371.903616 
L 274.616 373.790592 
L 277.344 375.418368 
L 280.568 377.053056 
L 283.792 378.421632 
L 287.016 379.565568 
L 290.736 380.650752 
L 294.704 381.590784 
L 299.416 382.465152 
L 303.88 383.104512 
L 309.832 383.743872 
L 318.512 384.362496 
L 327.44 384.749568 
L 344.552 385.115904 
L 363.152 385.264512 
L 509.968 385.344 
L 509.968 385.344 
" style="fill:none;stroke:#ff0000;stroke-dasharray:6.000000,6.000000;stroke-dashoffset:0.0;"/>
   </g>
   <g id="line2d_5">
    <path clip-path="url(#pead5f20104)" d="M 72 43.2 
L 74.976 43.30368 
L 77.208 43.7184 
L 78.448 44.16768 
L 79.936 44.89344 
L 81.424 45.82656 
L 83.16 47.13984 
L 87.376 51.39072 
L 89.112 53.46432 
L 92.336 57.68064 
L 96.056 63.03744 
L 102.256 72.71424 
L 114.408 93.24288 
L 118.128 99.77472 
L 120.608 104.12928 
L 130.776 122.3424 
L 132.512 125.4528 
L 168.968 191.70432 
L 170.952 195.33312 
L 216.336 277.75872 
L 218.816 282.3552 
L 223.528 291.09888 
L 229.232 301.98528 
L 230.968 305.3376 
L 233.448 310.27968 
L 236.176 315.84384 
L 240.64 325.41696 
L 244.112 333.40032 
L 246.84 340.13952 
L 249.32 346.6368 
L 251.8 353.51424 
L 255.024 362.81088 
L 258 371.13984 
L 259.736 375.37344 
L 260.976 377.917056 
L 262.216 379.976832 
L 263.456 381.545856 
L 264.448 382.4928 
L 265.688 383.360256 
L 266.928 383.965056 
L 268.416 384.452352 
L 270.4 384.846336 
L 273.128 385.11936 
L 276.848 385.267968 
L 283.048 385.333632 
L 509.968 385.344 
L 509.968 385.344 
" style="fill:none;stroke:#008000;stroke-linecap:square;"/>
   </g>
   <g id="line2d_6">
    <path clip-path="url(#pead5f20104)" d="M 72 43.2 
L 74.976 43.30368 
L 77.208 43.7184 
L 78.448 44.16768 
L 79.936 44.89344 
L 81.424 45.82656 
L 83.16 47.13984 
L 87.376 51.39072 
L 89.112 53.46432 
L 92.336 57.68064 
L 96.056 63.03744 
L 102.256 72.71424 
L 114.408 93.24288 
L 118.128 99.77472 
L 120.608 104.12928 
L 130.776 122.3424 
L 132.512 125.4528 
L 168.968 191.70432 
L 170.952 195.33312 
L 219.808 284.04864 
L 222.288 288.64512 
L 226.752 296.93952 
L 232.208 307.34208 
L 233.944 310.6944 
L 239.648 322.06464 
L 247.088 337.85856 
L 258.992 364.131072 
L 261.224 368.368128 
L 263.208 371.668608 
L 264.944 374.143104 
L 266.68 376.227072 
L 268.416 377.958528 
L 270.152 379.368576 
L 271.888 380.512512 
L 273.872 381.55968 
L 276.104 382.472064 
L 278.584 383.228928 
L 281.56 383.878656 
L 285.776 384.473088 
L 291.232 384.898176 
L 297.432 385.13664 
L 306.36 385.27488 
L 318.016 385.32672 
L 509.968 385.344 
L 509.968 385.344 
" style="fill:none;stroke:#008000;stroke-dasharray:6.000000,6.000000;stroke-dashoffset:0.0;"/>
   </g>
   <g id="line2d_7">
    <path clip-path="url(#pead5f20104)" d="M 72 43.2 
L 74.976 43.30368 
L 77.208 43.7184 
L 78.696 44.2368 
L 79.936 44.85888 
L 81.672 45.93024 
L 85.392 49.17888 
L 86.88 50.76864 
L 89.112 53.3952 
L 92.336 57.61152 
L 96.056 62.96832 
L 102.256 72.64512 
L 113.912 92.34432 
L 117.632 98.87616 
L 120.112 103.23072 
L 129.536 120.096 
L 131.272 123.2064 
L 168.968 191.70432 
L 170.952 195.33312 
L 217.08 279.10656 
L 219.56 283.70304 
L 224.024 291.99744 
L 229.976 303.36768 
L 231.464 306.27072 
L 235.928 315.22176 
L 240.888 325.83168 
L 244.36 333.81504 
L 249.816 347.74272 
L 254.776 361.891584 
L 258 371.03616 
L 259.736 375.349248 
L 261.224 378.404352 
L 262.464 380.40192 
L 263.704 381.898368 
L 264.944 382.973184 
L 266.184 383.716224 
L 267.672 384.310656 
L 269.408 384.735744 
L 271.64 385.036416 
L 275.36 385.243776 
L 282.552 385.333632 
L 509.968 385.344 
L 509.968 385.344 
" style="fill:none;stroke:#0000ff;stroke-linecap:square;"/>
   </g>
   <g id="line2d_8">
    <path clip-path="url(#pead5f20104)" d="M 72 43.2 
L 74.976 43.30368 
L 77.208 43.7184 
L 78.696 44.2368 
L 79.936 44.85888 
L 81.672 45.93024 
L 85.392 49.17888 
L 86.88 50.76864 
L 89.112 53.3952 
L 92.336 57.61152 
L 96.056 62.96832 
L 102.256 72.64512 
L 113.912 92.34432 
L 117.632 98.87616 
L 120.112 103.23072 
L 129.536 120.096 
L 131.272 123.2064 
L 168.968 191.70432 
L 170.952 195.33312 
L 220.304 284.9472 
L 222.784 289.54368 
L 227.248 297.83808 
L 233.696 310.176 
L 235.184 313.07904 
L 239.896 322.51392 
L 247.088 337.78944 
L 259.736 365.751936 
L 261.968 369.871488 
L 263.704 372.653568 
L 265.44 375.041664 
L 267.176 377.025408 
L 268.912 378.65664 
L 270.648 379.973376 
L 272.384 381.030912 
L 274.368 381.998592 
L 276.6 382.828032 
L 279.328 383.56416 
L 282.304 384.127488 
L 285.776 384.559488 
L 290.488 384.915456 
L 296.688 385.150464 
L 317.52 385.330176 
L 509.968 385.344 
L 509.968 385.344 
" style="fill:none;stroke:#0000ff;stroke-dasharray:6.000000,6.000000;stroke-dashoffset:0.0;"/>
   </g>
   <g id="patch_3">
    <path d="M 72 43.2 
L 518.4 43.2 
" style="fill:none;stroke:#000000;stroke-linecap:square;stroke-linejoin:miter;"/>
   </g>
   <g id="patch_4">
    <path d="M 518.4 388.8 
L 518.4 43.2 
" style="fill:none;stroke:#000000;stroke-linecap:square;stroke-linejoin:miter;"/>
   </g>
   <g id="patch_5">
    <path d="M 72 388.8 
L 518.4 388.8 
" style="fill:none;stroke:#000000;stroke-linecap:square;stroke-linejoin:miter;"/>
   </g>
   <g id="patch_6">
    <path d="M 72 388.8 
L 72 43.2 
" style="fill:none;stroke:#000000;stroke-linecap:square;stroke-linejoin:miter;"/>
   </g>
   <g id="matplotlib.axis_1">
    <g id="xtick_1">
     <g id="line2d_9">
      <defs>
       <path d="M 0 0 
L 0 -4 
" id="m273cbdbde9" style="stroke:#000000;stroke-width:0.5;"/>
      </defs>
      <g>
       <use style="stroke:#000000;stroke-width:0.5;" x="72.0" xlink:href="#m273cbdbde9" y="388.8"/>
      </g>
     </g>
     <g id="line2d_10">
      <defs>
       <path d="M 0 0 
L 0 4 
" id="m65252b614d" style="stroke:#000000;stroke-width:0.5;"/>
      </defs>
      <g>
       <use style="stroke:#000000;stroke-width:0.5;" x="72.0" xlink:href="#m65252b614d" y="43.2"/>
      </g>
     </g>
     <g id="text_1">
      <!-- 0 -->
      <defs>
       <path d="M 31.78125 66.40625 
Q 24.171875 66.40625 20.328125 58.90625 
Q 16.5 51.421875 16.5 36.375 
Q 16.5 21.390625 20.328125 13.890625 
Q 24.171875 6.390625 31.78125 6.390625 
Q 39.453125 6.390625 43.28125 13.890625 
Q 47.125 21.390625 47.125 36.375 
Q 47.125 51.421875 43.28125 58.90625 
Q 39.453125 66.40625 31.78125 66.40625 
M 31.78125 74.21875 
Q 44.046875 74.21875 50.515625 64.515625 
Q 56.984375 54.828125 56.984375 36.375 
Q 56.984375 17.96875 50.515625 8.265625 
Q 44.046875 -1.421875 31.78125 -1.421875 
Q 19.53125 -1.421875 13.0625 8.265625 
Q 6.59375 17.96875 6.59375 36.375 
Q 6.59375 54.828125 13.0625 64.515625 
Q 19.53125 74.21875 31.78125 74.21875 
" id="BitstreamVeraSans-Roman-30"/>
      </defs>
      <g transform="translate(68.1825 401.918125)scale(0.12 -0.12)">
       <use xlink:href="#BitstreamVeraSans-Roman-30"/>
      </g>
     </g>
    </g>
    <g id="xtick_2">
     <g id="line2d_11">
      <g>
       <use style="stroke:#000000;stroke-width:0.5;" x="121.6" xlink:href="#m273cbdbde9" y="388.8"/>
      </g>
     </g>
     <g id="line2d_12">
      <g>
       <use style="stroke:#000000;stroke-width:0.5;" x="121.6" xlink:href="#m65252b614d" y="43.2"/>
      </g>
     </g>
     <g id="text_2">
      <!-- 200 -->
      <defs>
       <path d="M 19.1875 8.296875 
L 53.609375 8.296875 
L 53.609375 0 
L 7.328125 0 
L 7.328125 8.296875 
Q 12.9375 14.109375 22.625 23.890625 
Q 32.328125 33.6875 34.8125 36.53125 
Q 39.546875 41.84375 41.421875 45.53125 
Q 43.3125 49.21875 43.3125 52.78125 
Q 43.3125 58.59375 39.234375 62.25 
Q 35.15625 65.921875 28.609375 65.921875 
Q 23.96875 65.921875 18.8125 64.3125 
Q 13.671875 62.703125 7.8125 59.421875 
L 7.8125 69.390625 
Q 13.765625 71.78125 18.9375 73 
Q 24.125 74.21875 28.421875 74.21875 
Q 39.75 74.21875 46.484375 68.546875 
Q 53.21875 62.890625 53.21875 53.421875 
Q 53.21875 48.921875 51.53125 44.890625 
Q 49.859375 40.875 45.40625 35.40625 
Q 44.1875 33.984375 37.640625 27.21875 
Q 31.109375 20.453125 19.1875 8.296875 
" id="BitstreamVeraSans-Roman-32"/>
      </defs>
      <g transform="translate(110.1475 401.918125)scale(0.12 -0.12)">
       <use xlink:href="#BitstreamVeraSans-Roman-32"/>
       <use x="63.623046875" xlink:href="#BitstreamVeraSans-Roman-30"/>
       <use x="127.24609375" xlink:href="#BitstreamVeraSans-Roman-30"/>
      </g>
     </g>
    </g>
    <g id="xtick_3">
     <g id="line2d_13">
      <g>
       <use style="stroke:#000000;stroke-width:0.5;" x="171.2" xlink:href="#m273cbdbde9" y="388.8"/>
      </g>
     </g>
     <g id="line2d_14">
      <g>
       <use style="stroke:#000000;stroke-width:0.5;" x="171.2" xlink:href="#m65252b614d" y="43.2"/>
      </g>
     </g>
     <g id="text_3">
      <!-- 400 -->
      <defs>
       <path d="M 37.796875 64.3125 
L 12.890625 25.390625 
L 37.796875 25.390625 
z
M 35.203125 72.90625 
L 47.609375 72.90625 
L 47.609375 25.390625 
L 58.015625 25.390625 
L 58.015625 17.1875 
L 47.609375 17.1875 
L 47.609375 0 
L 37.796875 0 
L 37.796875 17.1875 
L 4.890625 17.1875 
L 4.890625 26.703125 
z
" id="BitstreamVeraSans-Roman-34"/>
      </defs>
      <g transform="translate(159.7475 401.918125)scale(0.12 -0.12)">
       <use xlink:href="#BitstreamVeraSans-Roman-34"/>
       <use x="63.623046875" xlink:href="#BitstreamVeraSans-Roman-30"/>
       <use x="127.24609375" xlink:href="#BitstreamVeraSans-Roman-30"/>
      </g>
     </g>
    </g>
    <g id="xtick_4">
     <g id="line2d_15">
      <g>
       <use style="stroke:#000000;stroke-width:0.5;" x="220.8" xlink:href="#m273cbdbde9" y="388.8"/>
      </g>
     </g>
     <g id="line2d_16">
      <g>
       <use style="stroke:#000000;stroke-width:0.5;" x="220.8" xlink:href="#m65252b614d" y="43.2"/>
      </g>
     </g>
     <g id="text_4">
      <!-- 600 -->
      <defs>
       <path d="M 33.015625 40.375 
Q 26.375 40.375 22.484375 35.828125 
Q 18.609375 31.296875 18.609375 23.390625 
Q 18.609375 15.53125 22.484375 10.953125 
Q 26.375 6.390625 33.015625 6.390625 
Q 39.65625 6.390625 43.53125 10.953125 
Q 47.40625 15.53125 47.40625 23.390625 
Q 47.40625 31.296875 43.53125 35.828125 
Q 39.65625 40.375 33.015625 40.375 
M 52.59375 71.296875 
L 52.59375 62.3125 
Q 48.875 64.0625 45.09375 64.984375 
Q 41.3125 65.921875 37.59375 65.921875 
Q 27.828125 65.921875 22.671875 59.328125 
Q 17.53125 52.734375 16.796875 39.40625 
Q 19.671875 43.65625 24.015625 45.921875 
Q 28.375 48.1875 33.59375 48.1875 
Q 44.578125 48.1875 50.953125 41.515625 
Q 57.328125 34.859375 57.328125 23.390625 
Q 57.328125 12.15625 50.6875 5.359375 
Q 44.046875 -1.421875 33.015625 -1.421875 
Q 20.359375 -1.421875 13.671875 8.265625 
Q 6.984375 17.96875 6.984375 36.375 
Q 6.984375 53.65625 15.1875 63.9375 
Q 23.390625 74.21875 37.203125 74.21875 
Q 40.921875 74.21875 44.703125 73.484375 
Q 48.484375 72.75 52.59375 71.296875 
" id="BitstreamVeraSans-Roman-36"/>
      </defs>
      <g transform="translate(209.3475 401.918125)scale(0.12 -0.12)">
       <use xlink:href="#BitstreamVeraSans-Roman-36"/>
       <use x="63.623046875" xlink:href="#BitstreamVeraSans-Roman-30"/>
       <use x="127.24609375" xlink:href="#BitstreamVeraSans-Roman-30"/>
      </g>
     </g>
    </g>
    <g id="xtick_5">
     <g id="line2d_17">
      <g>
       <use style="stroke:#000000;stroke-width:0.5;" x="270.4" xlink:href="#m273cbdbde9" y="388.8"/>
      </g>
     </g>
     <g id="line2d_18">
      <g>
       <use style="stroke:#000000;stroke-width:0.5;" x="270.4" xlink:href="#m65252b614d" y="43.2"/>
      </g>
     </g>
     <g id="text_5">
      <!-- 800 -->
      <defs>
       <path d="M 31.78125 34.625 
Q 24.75 34.625 20.71875 30.859375 
Q 16.703125 27.09375 16.703125 20.515625 
Q 16.703125 13.921875 20.71875 10.15625 
Q 24.75 6.390625 31.78125 6.390625 
Q 38.8125 6.390625 42.859375 10.171875 
Q 46.921875 13.96875 46.921875 20.515625 
Q 46.921875 27.09375 42.890625 30.859375 
Q 38.875 34.625 31.78125 34.625 
M 21.921875 38.8125 
Q 15.578125 40.375 12.03125 44.71875 
Q 8.5 49.078125 8.5 55.328125 
Q 8.5 64.0625 14.71875 69.140625 
Q 20.953125 74.21875 31.78125 74.21875 
Q 42.671875 74.21875 48.875 69.140625 
Q 55.078125 64.0625 55.078125 55.328125 
Q 55.078125 49.078125 51.53125 44.71875 
Q 48 40.375 41.703125 38.8125 
Q 48.828125 37.15625 52.796875 32.3125 
Q 56.78125 27.484375 56.78125 20.515625 
Q 56.78125 9.90625 50.3125 4.234375 
Q 43.84375 -1.421875 31.78125 -1.421875 
Q 19.734375 -1.421875 13.25 4.234375 
Q 6.78125 9.90625 6.78125 20.515625 
Q 6.78125 27.484375 10.78125 32.3125 
Q 14.796875 37.15625 21.921875 38.8125 
M 18.3125 54.390625 
Q 18.3125 48.734375 21.84375 45.5625 
Q 25.390625 42.390625 31.78125 42.390625 
Q 38.140625 42.390625 41.71875 45.5625 
Q 45.3125 48.734375 45.3125 54.390625 
Q 45.3125 60.0625 41.71875 63.234375 
Q 38.140625 66.40625 31.78125 66.40625 
Q 25.390625 66.40625 21.84375 63.234375 
Q 18.3125 60.0625 18.3125 54.390625 
" id="BitstreamVeraSans-Roman-38"/>
      </defs>
      <g transform="translate(258.9475 401.918125)scale(0.12 -0.12)">
       <use xlink:href="#BitstreamVeraSans-Roman-38"/>
       <use x="63.623046875" xlink:href="#BitstreamVeraSans-Roman-30"/>
       <use x="127.24609375" xlink:href="#BitstreamVeraSans-Roman-30"/>
      </g>
     </g>
    </g>
    <g id="xtick_6">
     <g id="line2d_19">
      <g>
       <use style="stroke:#000000;stroke-width:0.5;" x="320.0" xlink:href="#m273cbdbde9" y="388.8"/>
      </g>
     </g>
     <g id="line2d_20">
      <g>
       <use style="stroke:#000000;stroke-width:0.5;" x="320.0" xlink:href="#m65252b614d" y="43.2"/>
      </g>
     </g>
     <g id="text_6">
      <!-- 1000 -->
      <defs>
       <path d="M 12.40625 8.296875 
L 28.515625 8.296875 
L 28.515625 63.921875 
L 10.984375 60.40625 
L 10.984375 69.390625 
L 28.421875 72.90625 
L 38.28125 72.90625 
L 38.28125 8.296875 
L 54.390625 8.296875 
L 54.390625 0 
L 12.40625 0 
z
" id="BitstreamVeraSans-Roman-31"/>
      </defs>
      <g transform="translate(304.73 401.918125)scale(0.12 -0.12)">
       <use xlink:href="#BitstreamVeraSans-Roman-31"/>
       <use x="63.623046875" xlink:href="#BitstreamVeraSans-Roman-30"/>
       <use x="127.24609375" xlink:href="#BitstreamVeraSans-Roman-30"/>
       <use x="190.869140625" xlink:href="#BitstreamVeraSans-Roman-30"/>
      </g>
     </g>
    </g>
    <g id="xtick_7">
     <g id="line2d_21">
      <g>
       <use style="stroke:#000000;stroke-width:0.5;" x="369.6" xlink:href="#m273cbdbde9" y="388.8"/>
      </g>
     </g>
     <g id="line2d_22">
      <g>
       <use style="stroke:#000000;stroke-width:0.5;" x="369.6" xlink:href="#m65252b614d" y="43.2"/>
      </g>
     </g>
     <g id="text_7">
      <!-- 1200 -->
      <g transform="translate(354.33 401.918125)scale(0.12 -0.12)">
       <use xlink:href="#BitstreamVeraSans-Roman-31"/>
       <use x="63.623046875" xlink:href="#BitstreamVeraSans-Roman-32"/>
       <use x="127.24609375" xlink:href="#BitstreamVeraSans-Roman-30"/>
       <use x="190.869140625" xlink:href="#BitstreamVeraSans-Roman-30"/>
      </g>
     </g>
    </g>
    <g id="xtick_8">
     <g id="line2d_23">
      <g>
       <use style="stroke:#000000;stroke-width:0.5;" x="419.2" xlink:href="#m273cbdbde9" y="388.8"/>
      </g>
     </g>
     <g id="line2d_24">
      <g>
       <use style="stroke:#000000;stroke-width:0.5;" x="419.2" xlink:href="#m65252b614d" y="43.2"/>
      </g>
     </g>
     <g id="text_8">
      <!-- 1400 -->
      <g transform="translate(403.93 401.918125)scale(0.12 -0.12)">
       <use xlink:href="#BitstreamVeraSans-Roman-31"/>
       <use x="63.623046875" xlink:href="#BitstreamVeraSans-Roman-34"/>
       <use x="127.24609375" xlink:href="#BitstreamVeraSans-Roman-30"/>
       <use x="190.869140625" xlink:href="#BitstreamVeraSans-Roman-30"/>
      </g>
     </g>
    </g>
    <g id="xtick_9">
     <g id="line2d_25">
      <g>
       <use style="stroke:#000000;stroke-width:0.5;" x="468.8" xlink:href="#m273cbdbde9" y="388.8"/>
      </g>
     </g>
     <g id="line2d_26">
      <g>
       <use style="stroke:#000000;stroke-width:0.5;" x="468.8" xlink:href="#m65252b614d" y="43.2"/>
      </g>
     </g>
     <g id="text_9">
      <!-- 1600 -->
      <g transform="translate(453.53 401.918125)scale(0.12 -0.12)">
       <use xlink:href="#BitstreamVeraSans-Roman-31"/>
       <use x="63.623046875" xlink:href="#BitstreamVeraSans-Roman-36"/>
       <use x="127.24609375" xlink:href="#BitstreamVeraSans-Roman-30"/>
       <use x="190.869140625" xlink:href="#BitstreamVeraSans-Roman-30"/>
      </g>
     </g>
    </g>
    <g id="xtick_10">
     <g id="line2d_27">
      <g>
       <use style="stroke:#000000;stroke-width:0.5;" x="518.4" xlink:href="#m273cbdbde9" y="388.8"/>
      </g>
     </g>
     <g id="line2d_28">
      <g>
       <use style="stroke:#000000;stroke-width:0.5;" x="518.4" xlink:href="#m65252b614d" y="43.2"/>
      </g>
     </g>
     <g id="text_10">
      <!-- 1800 -->
      <g transform="translate(503.13 401.918125)scale(0.12 -0.12)">
       <use xlink:href="#BitstreamVeraSans-Roman-31"/>
       <use x="63.623046875" xlink:href="#BitstreamVeraSans-Roman-38"/>
       <use x="127.24609375" xlink:href="#BitstreamVeraSans-Roman-30"/>
       <use x="190.869140625" xlink:href="#BitstreamVeraSans-Roman-30"/>
      </g>
     </g>
    </g>
    <g id="text_11">
     <!-- Time (s) -->
     <defs>
      <path id="BitstreamVeraSans-Roman-20"/>
      <path d="M 8.015625 75.875 
L 15.828125 75.875 
Q 23.140625 64.359375 26.78125 53.3125 
Q 30.421875 42.28125 30.421875 31.390625 
Q 30.421875 20.453125 26.78125 9.375 
Q 23.140625 -1.703125 15.828125 -13.1875 
L 8.015625 -13.1875 
Q 14.5 -2 17.703125 9.0625 
Q 20.90625 20.125 20.90625 31.390625 
Q 20.90625 42.671875 17.703125 53.65625 
Q 14.5 64.65625 8.015625 75.875 
" id="BitstreamVeraSans-Roman-29"/>
      <path d="M 31 75.875 
Q 24.46875 64.65625 21.28125 53.65625 
Q 18.109375 42.671875 18.109375 31.390625 
Q 18.109375 20.125 21.3125 9.0625 
Q 24.515625 -2 31 -13.1875 
L 23.1875 -13.1875 
Q 15.875 -1.703125 12.234375 9.375 
Q 8.59375 20.453125 8.59375 31.390625 
Q 8.59375 42.28125 12.203125 53.3125 
Q 15.828125 64.359375 23.1875 75.875 
z
" id="BitstreamVeraSans-Roman-28"/>
      <path d="M 9.421875 54.6875 
L 18.40625 54.6875 
L 18.40625 0 
L 9.421875 0 
z
M 9.421875 75.984375 
L 18.40625 75.984375 
L 18.40625 64.59375 
L 9.421875 64.59375 
z
" id="BitstreamVeraSans-Roman-69"/>
      <path d="M 52 44.1875 
Q 55.375 50.25 60.0625 53.125 
Q 64.75 56 71.09375 56 
Q 79.640625 56 84.28125 50.015625 
Q 88.921875 44.046875 88.921875 33.015625 
L 88.921875 0 
L 79.890625 0 
L 79.890625 32.71875 
Q 79.890625 40.578125 77.09375 44.375 
Q 74.3125 48.1875 68.609375 48.1875 
Q 61.625 48.1875 57.5625 43.546875 
Q 53.515625 38.921875 53.515625 30.90625 
L 53.515625 0 
L 44.484375 0 
L 44.484375 32.71875 
Q 44.484375 40.625 41.703125 44.40625 
Q 38.921875 48.1875 33.109375 48.1875 
Q 26.21875 48.1875 22.15625 43.53125 
Q 18.109375 38.875 18.109375 30.90625 
L 18.109375 0 
L 9.078125 0 
L 9.078125 54.6875 
L 18.109375 54.6875 
L 18.109375 46.1875 
Q 21.1875 51.21875 25.484375 53.609375 
Q 29.78125 56 35.6875 56 
Q 41.65625 56 45.828125 52.96875 
Q 50 49.953125 52 44.1875 
" id="BitstreamVeraSans-Roman-6d"/>
      <path d="M 56.203125 29.59375 
L 56.203125 25.203125 
L 14.890625 25.203125 
Q 15.484375 15.921875 20.484375 11.0625 
Q 25.484375 6.203125 34.421875 6.203125 
Q 39.59375 6.203125 44.453125 7.46875 
Q 49.3125 8.734375 54.109375 11.28125 
L 54.109375 2.78125 
Q 49.265625 0.734375 44.1875 -0.34375 
Q 39.109375 -1.421875 33.890625 -1.421875 
Q 20.796875 -1.421875 13.15625 6.1875 
Q 5.515625 13.8125 5.515625 26.8125 
Q 5.515625 40.234375 12.765625 48.109375 
Q 20.015625 56 32.328125 56 
Q 43.359375 56 49.78125 48.890625 
Q 56.203125 41.796875 56.203125 29.59375 
M 47.21875 32.234375 
Q 47.125 39.59375 43.09375 43.984375 
Q 39.0625 48.390625 32.421875 48.390625 
Q 24.90625 48.390625 20.390625 44.140625 
Q 15.875 39.890625 15.1875 32.171875 
z
" id="BitstreamVeraSans-Roman-65"/>
      <path d="M -0.296875 72.90625 
L 61.375 72.90625 
L 61.375 64.59375 
L 35.5 64.59375 
L 35.5 0 
L 25.59375 0 
L 25.59375 64.59375 
L -0.296875 64.59375 
z
" id="BitstreamVeraSans-Roman-54"/>
      <path d="M 44.28125 53.078125 
L 44.28125 44.578125 
Q 40.484375 46.53125 36.375 47.5 
Q 32.28125 48.484375 27.875 48.484375 
Q 21.1875 48.484375 17.84375 46.4375 
Q 14.5 44.390625 14.5 40.28125 
Q 14.5 37.15625 16.890625 35.375 
Q 19.28125 33.59375 26.515625 31.984375 
L 29.59375 31.296875 
Q 39.15625 29.25 43.1875 25.515625 
Q 47.21875 21.78125 47.21875 15.09375 
Q 47.21875 7.46875 41.1875 3.015625 
Q 35.15625 -1.421875 24.609375 -1.421875 
Q 20.21875 -1.421875 15.453125 -0.5625 
Q 10.6875 0.296875 5.421875 2 
L 5.421875 11.28125 
Q 10.40625 8.6875 15.234375 7.390625 
Q 20.0625 6.109375 24.8125 6.109375 
Q 31.15625 6.109375 34.5625 8.28125 
Q 37.984375 10.453125 37.984375 14.40625 
Q 37.984375 18.0625 35.515625 20.015625 
Q 33.0625 21.96875 24.703125 23.78125 
L 21.578125 24.515625 
Q 13.234375 26.265625 9.515625 29.90625 
Q 5.8125 33.546875 5.8125 39.890625 
Q 5.8125 47.609375 11.28125 51.796875 
Q 16.75 56 26.8125 56 
Q 31.78125 56 36.171875 55.265625 
Q 40.578125 54.546875 44.28125 53.078125 
" id="BitstreamVeraSans-Roman-73"/>
     </defs>
     <g transform="translate(270.620625 418.531875)scale(0.12 -0.12)">
      <use xlink:href="#BitstreamVeraSans-Roman-54"/>
      <use x="61.037109375" xlink:href="#BitstreamVeraSans-Roman-69"/>
      <use x="88.8203125" xlink:href="#BitstreamVeraSans-Roman-6d"/>
      <use x="186.232421875" xlink:href="#BitstreamVeraSans-Roman-65"/>
      <use x="247.755859375" xlink:href="#BitstreamVeraSans-Roman-20"/>
      <use x="279.54296875" xlink:href="#BitstreamVeraSans-Roman-28"/>
      <use x="318.556640625" xlink:href="#BitstreamVeraSans-Roman-73"/>
      <use x="370.65625" xlink:href="#BitstreamVeraSans-Roman-29"/>
     </g>
    </g>
   </g>
   <g id="matplotlib.axis_2">
    <g id="ytick_1">
     <g id="line2d_29">
      <defs>
       <path d="M 0 0 
L 4 0 
" id="ma701b62c56" style="stroke:#000000;stroke-width:0.5;"/>
      </defs>
      <g>
       <use style="stroke:#000000;stroke-width:0.5;" x="72.0" xlink:href="#ma701b62c56" y="388.8"/>
      </g>
     </g>
     <g id="line2d_30">
      <defs>
       <path d="M 0 0 
L -4 0 
" id="m22b1bf8340" style="stroke:#000000;stroke-width:0.5;"/>
      </defs>
      <g>
       <use style="stroke:#000000;stroke-width:0.5;" x="518.4" xlink:href="#m22b1bf8340" y="388.8"/>
      </g>
     </g>
     <g id="text_12">
      <!-- 0.0 -->
      <defs>
       <path d="M 10.6875 12.40625 
L 21 12.40625 
L 21 0 
L 10.6875 0 
z
" id="BitstreamVeraSans-Roman-2e"/>
      </defs>
      <g transform="translate(48.91625 392.11125)scale(0.12 -0.12)">
       <use xlink:href="#BitstreamVeraSans-Roman-30"/>
       <use x="63.623046875" xlink:href="#BitstreamVeraSans-Roman-2e"/>
       <use x="95.41015625" xlink:href="#BitstreamVeraSans-Roman-30"/>
      </g>
     </g>
    </g>
    <g id="ytick_2">
     <g id="line2d_31">
      <g>
       <use style="stroke:#000000;stroke-width:0.5;" x="72.0" xlink:href="#ma701b62c56" y="319.68"/>
      </g>
     </g>
     <g id="line2d_32">
      <g>
       <use style="stroke:#000000;stroke-width:0.5;" x="518.4" xlink:href="#m22b1bf8340" y="319.68"/>
      </g>
     </g>
     <g id="text_13">
      <!-- 0.2 -->
      <g transform="translate(48.91625 322.99125)scale(0.12 -0.12)">
       <use xlink:href="#BitstreamVeraSans-Roman-30"/>
       <use x="63.623046875" xlink:href="#BitstreamVeraSans-Roman-2e"/>
       <use x="95.41015625" xlink:href="#BitstreamVeraSans-Roman-32"/>
      </g>
     </g>
    </g>
    <g id="ytick_3">
     <g id="line2d_33">
      <g>
       <use style="stroke:#000000;stroke-width:0.5;" x="72.0" xlink:href="#ma701b62c56" y="250.56"/>
      </g>
     </g>
     <g id="line2d_34">
      <g>
       <use style="stroke:#000000;stroke-width:0.5;" x="518.4" xlink:href="#m22b1bf8340" y="250.56"/>
      </g>
     </g>
     <g id="text_14">
      <!-- 0.4 -->
      <g transform="translate(48.91625 253.87125)scale(0.12 -0.12)">
       <use xlink:href="#BitstreamVeraSans-Roman-30"/>
       <use x="63.623046875" xlink:href="#BitstreamVeraSans-Roman-2e"/>
       <use x="95.41015625" xlink:href="#BitstreamVeraSans-Roman-34"/>
      </g>
     </g>
    </g>
    <g id="ytick_4">
     <g id="line2d_35">
      <g>
       <use style="stroke:#000000;stroke-width:0.5;" x="72.0" xlink:href="#ma701b62c56" y="181.44"/>
      </g>
     </g>
     <g id="line2d_36">
      <g>
       <use style="stroke:#000000;stroke-width:0.5;" x="518.4" xlink:href="#m22b1bf8340" y="181.44"/>
      </g>
     </g>
     <g id="text_15">
      <!-- 0.6 -->
      <g transform="translate(48.91625 184.75125)scale(0.12 -0.12)">
       <use xlink:href="#BitstreamVeraSans-Roman-30"/>
       <use x="63.623046875" xlink:href="#BitstreamVeraSans-Roman-2e"/>
       <use x="95.41015625" xlink:href="#BitstreamVeraSans-Roman-36"/>
      </g>
     </g>
    </g>
    <g id="ytick_5">
     <g id="line2d_37">
      <g>
       <use style="stroke:#000000;stroke-width:0.5;" x="72.0" xlink:href="#ma701b62c56" y="112.32"/>
      </g>
     </g>
     <g id="line2d_38">
      <g>
       <use style="stroke:#000000;stroke-width:0.5;" x="518.4" xlink:href="#m22b1bf8340" y="112.32"/>
      </g>
     </g>
     <g id="text_16">
      <!-- 0.8 -->
      <g transform="translate(48.91625 115.63125)scale(0.12 -0.12)">
       <use xlink:href="#BitstreamVeraSans-Roman-30"/>
       <use x="63.623046875" xlink:href="#BitstreamVeraSans-Roman-2e"/>
       <use x="95.41015625" xlink:href="#BitstreamVeraSans-Roman-38"/>
      </g>
     </g>
    </g>
    <g id="ytick_6">
     <g id="line2d_39">
      <g>
       <use style="stroke:#000000;stroke-width:0.5;" x="72.0" xlink:href="#ma701b62c56" y="43.2"/>
      </g>
     </g>
     <g id="line2d_40">
      <g>
       <use style="stroke:#000000;stroke-width:0.5;" x="518.4" xlink:href="#m22b1bf8340" y="43.2"/>
      </g>
     </g>
     <g id="text_17">
      <!-- 1.0 -->
      <g transform="translate(48.91625 46.51125)scale(0.12 -0.12)">
       <use xlink:href="#BitstreamVeraSans-Roman-31"/>
       <use x="63.623046875" xlink:href="#BitstreamVeraSans-Roman-2e"/>
       <use x="95.41015625" xlink:href="#BitstreamVeraSans-Roman-30"/>
      </g>
     </g>
    </g>
    <g id="text_18">
     <!-- Normalized mass -->
     <defs>
      <path d="M 9.8125 72.90625 
L 23.09375 72.90625 
L 55.421875 11.921875 
L 55.421875 72.90625 
L 64.984375 72.90625 
L 64.984375 0 
L 51.703125 0 
L 19.390625 60.984375 
L 19.390625 0 
L 9.8125 0 
z
" id="BitstreamVeraSans-Roman-4e"/>
      <path d="M 41.109375 46.296875 
Q 39.59375 47.171875 37.8125 47.578125 
Q 36.03125 48 33.890625 48 
Q 26.265625 48 22.1875 43.046875 
Q 18.109375 38.09375 18.109375 28.8125 
L 18.109375 0 
L 9.078125 0 
L 9.078125 54.6875 
L 18.109375 54.6875 
L 18.109375 46.1875 
Q 20.953125 51.171875 25.484375 53.578125 
Q 30.03125 56 36.53125 56 
Q 37.453125 56 38.578125 55.875 
Q 39.703125 55.765625 41.0625 55.515625 
z
" id="BitstreamVeraSans-Roman-72"/>
      <path d="M 30.609375 48.390625 
Q 23.390625 48.390625 19.1875 42.75 
Q 14.984375 37.109375 14.984375 27.296875 
Q 14.984375 17.484375 19.15625 11.84375 
Q 23.34375 6.203125 30.609375 6.203125 
Q 37.796875 6.203125 41.984375 11.859375 
Q 46.1875 17.53125 46.1875 27.296875 
Q 46.1875 37.015625 41.984375 42.703125 
Q 37.796875 48.390625 30.609375 48.390625 
M 30.609375 56 
Q 42.328125 56 49.015625 48.375 
Q 55.71875 40.765625 55.71875 27.296875 
Q 55.71875 13.875 49.015625 6.21875 
Q 42.328125 -1.421875 30.609375 -1.421875 
Q 18.84375 -1.421875 12.171875 6.21875 
Q 5.515625 13.875 5.515625 27.296875 
Q 5.515625 40.765625 12.171875 48.375 
Q 18.84375 56 30.609375 56 
" id="BitstreamVeraSans-Roman-6f"/>
      <path d="M 9.421875 75.984375 
L 18.40625 75.984375 
L 18.40625 0 
L 9.421875 0 
z
" id="BitstreamVeraSans-Roman-6c"/>
      <path d="M 5.515625 54.6875 
L 48.1875 54.6875 
L 48.1875 46.484375 
L 14.40625 7.171875 
L 48.1875 7.171875 
L 48.1875 0 
L 4.296875 0 
L 4.296875 8.203125 
L 38.09375 47.515625 
L 5.515625 47.515625 
z
" id="BitstreamVeraSans-Roman-7a"/>
      <path d="M 45.40625 46.390625 
L 45.40625 75.984375 
L 54.390625 75.984375 
L 54.390625 0 
L 45.40625 0 
L 45.40625 8.203125 
Q 42.578125 3.328125 38.25 0.953125 
Q 33.9375 -1.421875 27.875 -1.421875 
Q 17.96875 -1.421875 11.734375 6.484375 
Q 5.515625 14.40625 5.515625 27.296875 
Q 5.515625 40.1875 11.734375 48.09375 
Q 17.96875 56 27.875 56 
Q 33.9375 56 38.25 53.625 
Q 42.578125 51.265625 45.40625 46.390625 
M 14.796875 27.296875 
Q 14.796875 17.390625 18.875 11.75 
Q 22.953125 6.109375 30.078125 6.109375 
Q 37.203125 6.109375 41.296875 11.75 
Q 45.40625 17.390625 45.40625 27.296875 
Q 45.40625 37.203125 41.296875 42.84375 
Q 37.203125 48.484375 30.078125 48.484375 
Q 22.953125 48.484375 18.875 42.84375 
Q 14.796875 37.203125 14.796875 27.296875 
" id="BitstreamVeraSans-Roman-64"/>
      <path d="M 34.28125 27.484375 
Q 23.390625 27.484375 19.1875 25 
Q 14.984375 22.515625 14.984375 16.5 
Q 14.984375 11.71875 18.140625 8.90625 
Q 21.296875 6.109375 26.703125 6.109375 
Q 34.1875 6.109375 38.703125 11.40625 
Q 43.21875 16.703125 43.21875 25.484375 
L 43.21875 27.484375 
z
M 52.203125 31.203125 
L 52.203125 0 
L 43.21875 0 
L 43.21875 8.296875 
Q 40.140625 3.328125 35.546875 0.953125 
Q 30.953125 -1.421875 24.3125 -1.421875 
Q 15.921875 -1.421875 10.953125 3.296875 
Q 6 8.015625 6 15.921875 
Q 6 25.140625 12.171875 29.828125 
Q 18.359375 34.515625 30.609375 34.515625 
L 43.21875 34.515625 
L 43.21875 35.40625 
Q 43.21875 41.609375 39.140625 45 
Q 35.0625 48.390625 27.6875 48.390625 
Q 23 48.390625 18.546875 47.265625 
Q 14.109375 46.140625 10.015625 43.890625 
L 10.015625 52.203125 
Q 14.9375 54.109375 19.578125 55.046875 
Q 24.21875 56 28.609375 56 
Q 40.484375 56 46.34375 49.84375 
Q 52.203125 43.703125 52.203125 31.203125 
" id="BitstreamVeraSans-Roman-61"/>
     </defs>
     <g transform="translate(41.420625 267.81)rotate(-90.0)scale(0.12 -0.12)">
      <use xlink:href="#BitstreamVeraSans-Roman-4e"/>
      <use x="74.8046875" xlink:href="#BitstreamVeraSans-Roman-6f"/>
      <use x="135.986328125" xlink:href="#BitstreamVeraSans-Roman-72"/>
      <use x="177.083984375" xlink:href="#BitstreamVeraSans-Roman-6d"/>
      <use x="274.49609375" xlink:href="#BitstreamVeraSans-Roman-61"/>
      <use x="335.775390625" xlink:href="#BitstreamVeraSans-Roman-6c"/>
      <use x="363.55859375" xlink:href="#BitstreamVeraSans-Roman-69"/>
      <use x="391.341796875" xlink:href="#BitstreamVeraSans-Roman-7a"/>
      <use x="443.83203125" xlink:href="#BitstreamVeraSans-Roman-65"/>
      <use x="505.35546875" xlink:href="#BitstreamVeraSans-Roman-64"/>
      <use x="568.83203125" xlink:href="#BitstreamVeraSans-Roman-20"/>
      <use x="600.619140625" xlink:href="#BitstreamVeraSans-Roman-6d"/>
      <use x="698.03125" xlink:href="#BitstreamVeraSans-Roman-61"/>
      <use x="759.310546875" xlink:href="#BitstreamVeraSans-Roman-73"/>
      <use x="811.41015625" xlink:href="#BitstreamVeraSans-Roman-73"/>
     </g>
    </g>
   </g>
   <g id="text_19">
    <!-- Best fit, heating rate: 50 kW/m$^2$ -->
    <defs>
     <path d="M 4.984375 0 
L 4.984375 2.6875 
Q 4.984375 2.9375 5.171875 3.21875 
L 20.703125 20.40625 
Q 24.21875 24.21875 26.40625 26.796875 
Q 28.609375 29.390625 30.75 32.765625 
Q 32.90625 36.140625 34.15625 39.625 
Q 35.40625 43.109375 35.40625 47.015625 
Q 35.40625 51.125 33.890625 54.859375 
Q 32.375 58.59375 29.375 60.84375 
Q 26.375 63.09375 22.125 63.09375 
Q 17.78125 63.09375 14.3125 60.46875 
Q 10.84375 57.859375 9.421875 53.71875 
Q 9.8125 53.8125 10.5 53.8125 
Q 12.75 53.8125 14.328125 52.296875 
Q 15.921875 50.78125 15.921875 48.390625 
Q 15.921875 46.09375 14.328125 44.5 
Q 12.75 42.921875 10.5 42.921875 
Q 8.15625 42.921875 6.5625 44.546875 
Q 4.984375 46.1875 4.984375 48.390625 
Q 4.984375 52.15625 6.390625 55.4375 
Q 7.8125 58.734375 10.46875 61.296875 
Q 13.140625 63.875 16.484375 65.234375 
Q 19.828125 66.609375 23.578125 66.609375 
Q 29.296875 66.609375 34.21875 64.1875 
Q 39.15625 61.765625 42.03125 57.34375 
Q 44.921875 52.9375 44.921875 47.015625 
Q 44.921875 42.671875 43.015625 38.765625 
Q 41.109375 34.859375 38.125 31.65625 
Q 35.15625 28.46875 30.515625 24.40625 
Q 25.875 20.359375 24.421875 19 
L 13.09375 8.109375 
L 22.703125 8.109375 
Q 29.78125 8.109375 34.546875 8.21875 
Q 39.3125 8.34375 39.59375 8.59375 
Q 40.765625 9.859375 42 17.828125 
L 44.921875 17.828125 
L 42.09375 0 
z
" id="Cmr10-32"/>
     <path d="M 10.796875 72.90625 
L 49.515625 72.90625 
L 49.515625 64.59375 
L 19.828125 64.59375 
L 19.828125 46.734375 
Q 21.96875 47.46875 24.109375 47.828125 
Q 26.265625 48.1875 28.421875 48.1875 
Q 40.625 48.1875 47.75 41.5 
Q 54.890625 34.8125 54.890625 23.390625 
Q 54.890625 11.625 47.5625 5.09375 
Q 40.234375 -1.421875 26.90625 -1.421875 
Q 22.3125 -1.421875 17.546875 -0.640625 
Q 12.796875 0.140625 7.71875 1.703125 
L 7.71875 11.625 
Q 12.109375 9.234375 16.796875 8.0625 
Q 21.484375 6.890625 26.703125 6.890625 
Q 35.15625 6.890625 40.078125 11.328125 
Q 45.015625 15.765625 45.015625 23.390625 
Q 45.015625 31 40.078125 35.4375 
Q 35.15625 39.890625 26.703125 39.890625 
Q 22.75 39.890625 18.8125 39.015625 
Q 14.890625 38.140625 10.796875 36.28125 
z
" id="BitstreamVeraSans-Roman-35"/>
     <path d="M 54.890625 33.015625 
L 54.890625 0 
L 45.90625 0 
L 45.90625 32.71875 
Q 45.90625 40.484375 42.875 44.328125 
Q 39.84375 48.1875 33.796875 48.1875 
Q 26.515625 48.1875 22.3125 43.546875 
Q 18.109375 38.921875 18.109375 30.90625 
L 18.109375 0 
L 9.078125 0 
L 9.078125 54.6875 
L 18.109375 54.6875 
L 18.109375 46.1875 
Q 21.34375 51.125 25.703125 53.5625 
Q 30.078125 56 35.796875 56 
Q 45.21875 56 50.046875 50.171875 
Q 54.890625 44.34375 54.890625 33.015625 
" id="BitstreamVeraSans-Roman-6e"/>
     <path d="M 25.390625 72.90625 
L 33.6875 72.90625 
L 8.296875 -9.28125 
L 0 -9.28125 
z
" id="BitstreamVeraSans-Roman-2f"/>
     <path d="M 9.078125 75.984375 
L 18.109375 75.984375 
L 18.109375 31.109375 
L 44.921875 54.6875 
L 56.390625 54.6875 
L 27.390625 29.109375 
L 57.625 0 
L 45.90625 0 
L 18.109375 26.703125 
L 18.109375 0 
L 9.078125 0 
z
" id="BitstreamVeraSans-Roman-6b"/>
     <path d="M 11.71875 12.40625 
L 22.015625 12.40625 
L 22.015625 4 
L 14.015625 -11.625 
L 7.71875 -11.625 
L 11.71875 4 
z
" id="BitstreamVeraSans-Roman-2c"/>
     <path d="M 11.71875 12.40625 
L 22.015625 12.40625 
L 22.015625 0 
L 11.71875 0 
z
M 11.71875 51.703125 
L 22.015625 51.703125 
L 22.015625 39.3125 
L 11.71875 39.3125 
z
" id="BitstreamVeraSans-Roman-3a"/>
     <path d="M 19.671875 34.8125 
L 19.671875 8.109375 
L 35.5 8.109375 
Q 43.453125 8.109375 47.28125 11.40625 
Q 51.125 14.703125 51.125 21.484375 
Q 51.125 28.328125 47.28125 31.5625 
Q 43.453125 34.8125 35.5 34.8125 
z
M 19.671875 64.796875 
L 19.671875 42.828125 
L 34.28125 42.828125 
Q 41.5 42.828125 45.03125 45.53125 
Q 48.578125 48.25 48.578125 53.8125 
Q 48.578125 59.328125 45.03125 62.0625 
Q 41.5 64.796875 34.28125 64.796875 
z
M 9.8125 72.90625 
L 35.015625 72.90625 
Q 46.296875 72.90625 52.390625 68.21875 
Q 58.5 63.53125 58.5 54.890625 
Q 58.5 48.1875 55.375 44.234375 
Q 52.25 40.28125 46.1875 39.3125 
Q 53.46875 37.75 57.5 32.78125 
Q 61.53125 27.828125 61.53125 20.40625 
Q 61.53125 10.640625 54.890625 5.3125 
Q 48.25 0 35.984375 0 
L 9.8125 0 
z
" id="BitstreamVeraSans-Roman-42"/>
     <path d="M 3.328125 72.90625 
L 13.28125 72.90625 
L 28.609375 11.28125 
L 43.890625 72.90625 
L 54.984375 72.90625 
L 70.3125 11.28125 
L 85.59375 72.90625 
L 95.609375 72.90625 
L 77.296875 0 
L 64.890625 0 
L 49.515625 63.28125 
L 33.984375 0 
L 21.578125 0 
z
" id="BitstreamVeraSans-Roman-57"/>
     <path d="M 18.3125 70.21875 
L 18.3125 54.6875 
L 36.8125 54.6875 
L 36.8125 47.703125 
L 18.3125 47.703125 
L 18.3125 18.015625 
Q 18.3125 11.328125 20.140625 9.421875 
Q 21.96875 7.515625 27.59375 7.515625 
L 36.8125 7.515625 
L 36.8125 0 
L 27.59375 0 
Q 17.1875 0 13.234375 3.875 
Q 9.28125 7.765625 9.28125 18.015625 
L 9.28125 47.703125 
L 2.6875 47.703125 
L 2.6875 54.6875 
L 9.28125 54.6875 
L 9.28125 70.21875 
z
" id="BitstreamVeraSans-Roman-74"/>
     <path d="M 37.109375 75.984375 
L 37.109375 68.5 
L 28.515625 68.5 
Q 23.6875 68.5 21.796875 66.546875 
Q 19.921875 64.59375 19.921875 59.515625 
L 19.921875 54.6875 
L 34.71875 54.6875 
L 34.71875 47.703125 
L 19.921875 47.703125 
L 19.921875 0 
L 10.890625 0 
L 10.890625 47.703125 
L 2.296875 47.703125 
L 2.296875 54.6875 
L 10.890625 54.6875 
L 10.890625 58.5 
Q 10.890625 67.625 15.140625 71.796875 
Q 19.390625 75.984375 28.609375 75.984375 
z
" id="BitstreamVeraSans-Roman-66"/>
     <path d="M 45.40625 27.984375 
Q 45.40625 37.75 41.375 43.109375 
Q 37.359375 48.484375 30.078125 48.484375 
Q 22.859375 48.484375 18.828125 43.109375 
Q 14.796875 37.75 14.796875 27.984375 
Q 14.796875 18.265625 18.828125 12.890625 
Q 22.859375 7.515625 30.078125 7.515625 
Q 37.359375 7.515625 41.375 12.890625 
Q 45.40625 18.265625 45.40625 27.984375 
M 54.390625 6.78125 
Q 54.390625 -7.171875 48.1875 -13.984375 
Q 42 -20.796875 29.203125 -20.796875 
Q 24.46875 -20.796875 20.265625 -20.09375 
Q 16.0625 -19.390625 12.109375 -17.921875 
L 12.109375 -9.1875 
Q 16.0625 -11.328125 19.921875 -12.34375 
Q 23.78125 -13.375 27.78125 -13.375 
Q 36.625 -13.375 41.015625 -8.765625 
Q 45.40625 -4.15625 45.40625 5.171875 
L 45.40625 9.625 
Q 42.625 4.78125 38.28125 2.390625 
Q 33.9375 0 27.875 0 
Q 17.828125 0 11.671875 7.65625 
Q 5.515625 15.328125 5.515625 27.984375 
Q 5.515625 40.671875 11.671875 48.328125 
Q 17.828125 56 27.875 56 
Q 33.9375 56 38.28125 53.609375 
Q 42.625 51.21875 45.40625 46.390625 
L 45.40625 54.6875 
L 54.390625 54.6875 
z
" id="BitstreamVeraSans-Roman-67"/>
     <path d="M 54.890625 33.015625 
L 54.890625 0 
L 45.90625 0 
L 45.90625 32.71875 
Q 45.90625 40.484375 42.875 44.328125 
Q 39.84375 48.1875 33.796875 48.1875 
Q 26.515625 48.1875 22.3125 43.546875 
Q 18.109375 38.921875 18.109375 30.90625 
L 18.109375 0 
L 9.078125 0 
L 9.078125 75.984375 
L 18.109375 75.984375 
L 18.109375 46.1875 
Q 21.34375 51.125 25.703125 53.5625 
Q 30.078125 56 35.796875 56 
Q 45.21875 56 50.046875 50.171875 
Q 54.890625 44.34375 54.890625 33.015625 
" id="BitstreamVeraSans-Roman-68"/>
    </defs>
    <g transform="translate(180.504 38.2)scale(0.144 -0.144)">
     <use transform="translate(0.0 0.109375)" xlink:href="#BitstreamVeraSans-Roman-42"/>
     <use transform="translate(68.603515625 0.109375)" xlink:href="#BitstreamVeraSans-Roman-65"/>
     <use transform="translate(130.126953125 0.109375)" xlink:href="#BitstreamVeraSans-Roman-73"/>
     <use transform="translate(182.2265625 0.109375)" xlink:href="#BitstreamVeraSans-Roman-74"/>
     <use transform="translate(221.435546875 0.109375)" xlink:href="#BitstreamVeraSans-Roman-20"/>
     <use transform="translate(253.22265625 0.109375)" xlink:href="#BitstreamVeraSans-Roman-66"/>
     <use transform="translate(288.427734375 0.109375)" xlink:href="#BitstreamVeraSans-Roman-69"/>
     <use transform="translate(316.2109375 0.109375)" xlink:href="#BitstreamVeraSans-Roman-74"/>
     <use transform="translate(355.419921875 0.109375)" xlink:href="#BitstreamVeraSans-Roman-2c"/>
     <use transform="translate(387.20703125 0.109375)" xlink:href="#BitstreamVeraSans-Roman-20"/>
     <use transform="translate(418.994140625 0.109375)" xlink:href="#BitstreamVeraSans-Roman-68"/>
     <use transform="translate(482.373046875 0.109375)" xlink:href="#BitstreamVeraSans-Roman-65"/>
     <use transform="translate(543.896484375 0.109375)" xlink:href="#BitstreamVeraSans-Roman-61"/>
     <use transform="translate(605.17578125 0.109375)" xlink:href="#BitstreamVeraSans-Roman-74"/>
     <use transform="translate(644.384765625 0.109375)" xlink:href="#BitstreamVeraSans-Roman-69"/>
     <use transform="translate(672.16796875 0.109375)" xlink:href="#BitstreamVeraSans-Roman-6e"/>
     <use transform="translate(735.546875 0.109375)" xlink:href="#BitstreamVeraSans-Roman-67"/>
     <use transform="translate(799.0234375 0.109375)" xlink:href="#BitstreamVeraSans-Roman-20"/>
     <use transform="translate(830.810546875 0.109375)" xlink:href="#BitstreamVeraSans-Roman-72"/>
     <use transform="translate(871.923828125 0.109375)" xlink:href="#BitstreamVeraSans-Roman-61"/>
     <use transform="translate(933.203125 0.109375)" xlink:href="#BitstreamVeraSans-Roman-74"/>
     <use transform="translate(972.412109375 0.109375)" xlink:href="#BitstreamVeraSans-Roman-65"/>
     <use transform="translate(1033.93554688 0.109375)" xlink:href="#BitstreamVeraSans-Roman-3a"/>
     <use transform="translate(1067.62695312 0.109375)" xlink:href="#BitstreamVeraSans-Roman-20"/>
     <use transform="translate(1099.4140625 0.109375)" xlink:href="#BitstreamVeraSans-Roman-35"/>
     <use transform="translate(1163.03710938 0.109375)" xlink:href="#BitstreamVeraSans-Roman-30"/>
     <use transform="translate(1226.66015625 0.109375)" xlink:href="#BitstreamVeraSans-Roman-20"/>
     <use transform="translate(1258.44726562 0.109375)" xlink:href="#BitstreamVeraSans-Roman-6b"/>
     <use transform="translate(1316.35742188 0.109375)" xlink:href="#BitstreamVeraSans-Roman-57"/>
     <use transform="translate(1415.234375 0.109375)" xlink:href="#BitstreamVeraSans-Roman-2f"/>
     <use transform="translate(1448.92578125 0.109375)" xlink:href="#BitstreamVeraSans-Roman-6d"/>
     <use transform="translate(1550.80203125 38.3734375)scale(0.7)" xlink:href="#Cmr10-32"/>
    </g>
   </g>
   <g id="legend_1">
    <g id="patch_7">
     <path d="M 419.214062 168.625 
L 513.4 168.625 
L 513.4 48.2 
L 419.214062 48.2 
z
" style="fill:#ffffff;stroke:#000000;stroke-linejoin:miter;"/>
    </g>
    <g id="line2d_41">
     <path d="M 426.214062 56.298438 
L 440.214062 56.298438 
" style="fill:none;stroke:#bfbf00;stroke-linecap:square;"/>
    </g>
    <g id="line2d_42"/>
    <g id="text_20">
     <!-- Target iso -->
     <g transform="translate(451.2140625 59.7984375)scale(0.1 -0.1)">
      <use xlink:href="#BitstreamVeraSans-Roman-54"/>
      <use x="60.833984375" xlink:href="#BitstreamVeraSans-Roman-61"/>
      <use x="122.11328125" xlink:href="#BitstreamVeraSans-Roman-72"/>
      <use x="163.2109375" xlink:href="#BitstreamVeraSans-Roman-67"/>
      <use x="226.6875" xlink:href="#BitstreamVeraSans-Roman-65"/>
      <use x="288.2109375" xlink:href="#BitstreamVeraSans-Roman-74"/>
      <use x="327.419921875" xlink:href="#BitstreamVeraSans-Roman-20"/>
      <use x="359.20703125" xlink:href="#BitstreamVeraSans-Roman-69"/>
      <use x="386.990234375" xlink:href="#BitstreamVeraSans-Roman-73"/>
      <use x="439.08984375" xlink:href="#BitstreamVeraSans-Roman-6f"/>
     </g>
    </g>
    <g id="line2d_43">
     <path d="M 426.214062 70.976563 
L 440.214062 70.976563 
" style="fill:none;stroke:#bfbf00;stroke-dasharray:6.000000,6.000000;stroke-dashoffset:0.0;"/>
    </g>
    <g id="line2d_44"/>
    <g id="text_21">
     <!-- Target alu -->
     <defs>
      <path d="M 8.5 21.578125 
L 8.5 54.6875 
L 17.484375 54.6875 
L 17.484375 21.921875 
Q 17.484375 14.15625 20.5 10.265625 
Q 23.53125 6.390625 29.59375 6.390625 
Q 36.859375 6.390625 41.078125 11.03125 
Q 45.3125 15.671875 45.3125 23.6875 
L 45.3125 54.6875 
L 54.296875 54.6875 
L 54.296875 0 
L 45.3125 0 
L 45.3125 8.40625 
Q 42.046875 3.421875 37.71875 1 
Q 33.40625 -1.421875 27.6875 -1.421875 
Q 18.265625 -1.421875 13.375 4.4375 
Q 8.5 10.296875 8.5 21.578125 
" id="BitstreamVeraSans-Roman-75"/>
     </defs>
     <g transform="translate(451.2140625 74.4765625)scale(0.1 -0.1)">
      <use xlink:href="#BitstreamVeraSans-Roman-54"/>
      <use x="60.833984375" xlink:href="#BitstreamVeraSans-Roman-61"/>
      <use x="122.11328125" xlink:href="#BitstreamVeraSans-Roman-72"/>
      <use x="163.2109375" xlink:href="#BitstreamVeraSans-Roman-67"/>
      <use x="226.6875" xlink:href="#BitstreamVeraSans-Roman-65"/>
      <use x="288.2109375" xlink:href="#BitstreamVeraSans-Roman-74"/>
      <use x="327.419921875" xlink:href="#BitstreamVeraSans-Roman-20"/>
      <use x="359.20703125" xlink:href="#BitstreamVeraSans-Roman-61"/>
      <use x="420.486328125" xlink:href="#BitstreamVeraSans-Roman-6c"/>
      <use x="448.26953125" xlink:href="#BitstreamVeraSans-Roman-75"/>
     </g>
    </g>
    <g id="line2d_45">
     <path d="M 426.214062 85.654688 
L 440.214062 85.654688 
" style="fill:none;stroke:#ff0000;stroke-linecap:square;"/>
    </g>
    <g id="line2d_46"/>
    <g id="text_22">
     <!-- ABC iso -->
     <defs>
      <path d="M 64.40625 67.28125 
L 64.40625 56.890625 
Q 59.421875 61.53125 53.78125 63.8125 
Q 48.140625 66.109375 41.796875 66.109375 
Q 29.296875 66.109375 22.65625 58.46875 
Q 16.015625 50.828125 16.015625 36.375 
Q 16.015625 21.96875 22.65625 14.328125 
Q 29.296875 6.6875 41.796875 6.6875 
Q 48.140625 6.6875 53.78125 8.984375 
Q 59.421875 11.28125 64.40625 15.921875 
L 64.40625 5.609375 
Q 59.234375 2.09375 53.4375 0.328125 
Q 47.65625 -1.421875 41.21875 -1.421875 
Q 24.65625 -1.421875 15.125 8.703125 
Q 5.609375 18.84375 5.609375 36.375 
Q 5.609375 53.953125 15.125 64.078125 
Q 24.65625 74.21875 41.21875 74.21875 
Q 47.75 74.21875 53.53125 72.484375 
Q 59.328125 70.75 64.40625 67.28125 
" id="BitstreamVeraSans-Roman-43"/>
      <path d="M 34.1875 63.1875 
L 20.796875 26.90625 
L 47.609375 26.90625 
z
M 28.609375 72.90625 
L 39.796875 72.90625 
L 67.578125 0 
L 57.328125 0 
L 50.6875 18.703125 
L 17.828125 18.703125 
L 11.1875 0 
L 0.78125 0 
z
" id="BitstreamVeraSans-Roman-41"/>
     </defs>
     <g transform="translate(451.2140625 89.1546875)scale(0.1 -0.1)">
      <use xlink:href="#BitstreamVeraSans-Roman-41"/>
      <use x="68.408203125" xlink:href="#BitstreamVeraSans-Roman-42"/>
      <use x="136.99609375" xlink:href="#BitstreamVeraSans-Roman-43"/>
      <use x="206.8203125" xlink:href="#BitstreamVeraSans-Roman-20"/>
      <use x="238.607421875" xlink:href="#BitstreamVeraSans-Roman-69"/>
      <use x="266.390625" xlink:href="#BitstreamVeraSans-Roman-73"/>
      <use x="318.490234375" xlink:href="#BitstreamVeraSans-Roman-6f"/>
     </g>
    </g>
    <g id="line2d_47">
     <path d="M 426.214062 100.332813 
L 440.214062 100.332813 
" style="fill:none;stroke:#ff0000;stroke-dasharray:6.000000,6.000000;stroke-dashoffset:0.0;"/>
    </g>
    <g id="line2d_48"/>
    <g id="text_23">
     <!-- ABC alu -->
     <g transform="translate(451.2140625 103.8328125)scale(0.1 -0.1)">
      <use xlink:href="#BitstreamVeraSans-Roman-41"/>
      <use x="68.408203125" xlink:href="#BitstreamVeraSans-Roman-42"/>
      <use x="136.99609375" xlink:href="#BitstreamVeraSans-Roman-43"/>
      <use x="206.8203125" xlink:href="#BitstreamVeraSans-Roman-20"/>
      <use x="238.607421875" xlink:href="#BitstreamVeraSans-Roman-61"/>
      <use x="299.88671875" xlink:href="#BitstreamVeraSans-Roman-6c"/>
      <use x="327.669921875" xlink:href="#BitstreamVeraSans-Roman-75"/>
     </g>
    </g>
    <g id="line2d_49">
     <path d="M 426.214062 115.010938 
L 440.214062 115.010938 
" style="fill:none;stroke:#008000;stroke-linecap:square;"/>
    </g>
    <g id="line2d_50"/>
    <g id="text_24">
     <!-- FSCABC iso -->
     <defs>
      <path d="M 9.8125 72.90625 
L 51.703125 72.90625 
L 51.703125 64.59375 
L 19.671875 64.59375 
L 19.671875 43.109375 
L 48.578125 43.109375 
L 48.578125 34.8125 
L 19.671875 34.8125 
L 19.671875 0 
L 9.8125 0 
z
" id="BitstreamVeraSans-Roman-46"/>
      <path d="M 53.515625 70.515625 
L 53.515625 60.890625 
Q 47.90625 63.578125 42.921875 64.890625 
Q 37.9375 66.21875 33.296875 66.21875 
Q 25.25 66.21875 20.875 63.09375 
Q 16.5 59.96875 16.5 54.203125 
Q 16.5 49.359375 19.40625 46.890625 
Q 22.3125 44.4375 30.421875 42.921875 
L 36.375 41.703125 
Q 47.40625 39.59375 52.65625 34.296875 
Q 57.90625 29 57.90625 20.125 
Q 57.90625 9.515625 50.796875 4.046875 
Q 43.703125 -1.421875 29.984375 -1.421875 
Q 24.8125 -1.421875 18.96875 -0.25 
Q 13.140625 0.921875 6.890625 3.21875 
L 6.890625 13.375 
Q 12.890625 10.015625 18.65625 8.296875 
Q 24.421875 6.59375 29.984375 6.59375 
Q 38.421875 6.59375 43.015625 9.90625 
Q 47.609375 13.234375 47.609375 19.390625 
Q 47.609375 24.75 44.3125 27.78125 
Q 41.015625 30.8125 33.5 32.328125 
L 27.484375 33.5 
Q 16.453125 35.6875 11.515625 40.375 
Q 6.59375 45.0625 6.59375 53.421875 
Q 6.59375 63.09375 13.40625 68.65625 
Q 20.21875 74.21875 32.171875 74.21875 
Q 37.3125 74.21875 42.625 73.28125 
Q 47.953125 72.359375 53.515625 70.515625 
" id="BitstreamVeraSans-Roman-53"/>
     </defs>
     <g transform="translate(451.2140625 118.5109375)scale(0.1 -0.1)">
      <use xlink:href="#BitstreamVeraSans-Roman-46"/>
      <use x="57.50390625" xlink:href="#BitstreamVeraSans-Roman-53"/>
      <use x="120.98046875" xlink:href="#BitstreamVeraSans-Roman-43"/>
      <use x="190.8046875" xlink:href="#BitstreamVeraSans-Roman-41"/>
      <use x="259.212890625" xlink:href="#BitstreamVeraSans-Roman-42"/>
      <use x="327.80078125" xlink:href="#BitstreamVeraSans-Roman-43"/>
      <use x="397.625" xlink:href="#BitstreamVeraSans-Roman-20"/>
      <use x="429.412109375" xlink:href="#BitstreamVeraSans-Roman-69"/>
      <use x="457.1953125" xlink:href="#BitstreamVeraSans-Roman-73"/>
      <use x="509.294921875" xlink:href="#BitstreamVeraSans-Roman-6f"/>
     </g>
    </g>
    <g id="line2d_51">
     <path d="M 426.214062 129.689063 
L 440.214062 129.689063 
" style="fill:none;stroke:#008000;stroke-dasharray:6.000000,6.000000;stroke-dashoffset:0.0;"/>
    </g>
    <g id="line2d_52"/>
    <g id="text_25">
     <!-- FSCABC alu -->
     <g transform="translate(451.2140625 133.1890625)scale(0.1 -0.1)">
      <use xlink:href="#BitstreamVeraSans-Roman-46"/>
      <use x="57.50390625" xlink:href="#BitstreamVeraSans-Roman-53"/>
      <use x="120.98046875" xlink:href="#BitstreamVeraSans-Roman-43"/>
      <use x="190.8046875" xlink:href="#BitstreamVeraSans-Roman-41"/>
      <use x="259.212890625" xlink:href="#BitstreamVeraSans-Roman-42"/>
      <use x="327.80078125" xlink:href="#BitstreamVeraSans-Roman-43"/>
      <use x="397.625" xlink:href="#BitstreamVeraSans-Roman-20"/>
      <use x="429.412109375" xlink:href="#BitstreamVeraSans-Roman-61"/>
      <use x="490.69140625" xlink:href="#BitstreamVeraSans-Roman-6c"/>
      <use x="518.474609375" xlink:href="#BitstreamVeraSans-Roman-75"/>
     </g>
    </g>
    <g id="line2d_53">
     <path d="M 426.214062 144.367188 
L 440.214062 144.367188 
" style="fill:none;stroke:#0000ff;stroke-linecap:square;"/>
    </g>
    <g id="line2d_54"/>
    <g id="text_26">
     <!-- SCE iso -->
     <defs>
      <path d="M 9.8125 72.90625 
L 55.90625 72.90625 
L 55.90625 64.59375 
L 19.671875 64.59375 
L 19.671875 43.015625 
L 54.390625 43.015625 
L 54.390625 34.71875 
L 19.671875 34.71875 
L 19.671875 8.296875 
L 56.78125 8.296875 
L 56.78125 0 
L 9.8125 0 
z
" id="BitstreamVeraSans-Roman-45"/>
     </defs>
     <g transform="translate(451.2140625 147.8671875)scale(0.1 -0.1)">
      <use xlink:href="#BitstreamVeraSans-Roman-53"/>
      <use x="63.4765625" xlink:href="#BitstreamVeraSans-Roman-43"/>
      <use x="133.30078125" xlink:href="#BitstreamVeraSans-Roman-45"/>
      <use x="196.484375" xlink:href="#BitstreamVeraSans-Roman-20"/>
      <use x="228.271484375" xlink:href="#BitstreamVeraSans-Roman-69"/>
      <use x="256.0546875" xlink:href="#BitstreamVeraSans-Roman-73"/>
      <use x="308.154296875" xlink:href="#BitstreamVeraSans-Roman-6f"/>
     </g>
    </g>
    <g id="line2d_55">
     <path d="M 426.214062 159.045313 
L 440.214062 159.045313 
" style="fill:none;stroke:#0000ff;stroke-dasharray:6.000000,6.000000;stroke-dashoffset:0.0;"/>
    </g>
    <g id="line2d_56"/>
    <g id="text_27">
     <!-- SCE alu -->
     <g transform="translate(451.2140625 162.5453125)scale(0.1 -0.1)">
      <use xlink:href="#BitstreamVeraSans-Roman-53"/>
      <use x="63.4765625" xlink:href="#BitstreamVeraSans-Roman-43"/>
      <use x="133.30078125" xlink:href="#BitstreamVeraSans-Roman-45"/>
      <use x="196.484375" xlink:href="#BitstreamVeraSans-Roman-20"/>
      <use x="228.271484375" xlink:href="#BitstreamVeraSans-Roman-61"/>
      <use x="289.55078125" xlink:href="#BitstreamVeraSans-Roman-6c"/>
      <use x="317.333984375" xlink:href="#BitstreamVeraSans-Roman-75"/>
     </g>
    </g>
   </g>
  </g>
 </g>
 <defs>
  <clipPath id="pead5f20104">
   <rect height="345.6" width="446.4" x="72.0" y="43.2"/>
  </clipPath>
 </defs>
</svg>
